# AST/ASF file generated using VICON BodyLanguage
# -----------------------------------------------
:version 1.10
:name VICON
:units
  mass 1.0
  length 0.45
  angle deg
:documentation
   .ast/.asf automatically generated from VICON data using
   VICON BodyBuilder and BodyLanguage model FoxedUp or BRILLIANT.MOD
:root
   order TX TY TZ RX RY RZ
   axis XYZ
   position 0 0 0  
   orientation 0 0 0 
:bonedata
  begin
     id 1 
     name lhipjoint
     direction 0.734343 -0.627749 0.258209 
     length 2.5437 
     axis 0 0 0  XYZ
  end
  begin
     id 2 
     name lfemur
     direction 0.34202 -0.939693 0  
     length 6.7391  
     axis 0 0 20  XYZ
    dof rx ry rz
    limits (-160.0 20.0)
           (-70.0 70.0)
           (-60.0 70.0)
  end
  begin
     id 3 
     name ltibia
     direction 0.34202 -0.939693 0   
     length 7.21536   
     axis 0 0 20   XYZ
    dof rx
    limits (-10.0 170.0)
  end
  begin
     id 4 
     name lfoot
     direction 0.0489572 -0.134509 0.989702   
     length 1.61313   
     axis -90 7.62852e-016 20   XYZ
    dof rx rz
    limits (-45.0 90.0)
           (-70.0 20.0)
  end
  begin
     id 5 
     name ltoes
     direction 1.53451e-011 -4.21692e-011 1   
     length 0.823104   
     axis -90 7.62852e-016 20   XYZ
    dof rx
    limits (-90.0 20.0)
  end
  begin
     id 6 
     name rhipjoint
     direction -0.746398 -0.615468 0.253157   
     length 2.59446  
     axis 0 0 0  XYZ 
  end
  begin
     id 7 
     name rfemur
     direction -0.34202 -0.939693 0   
     length 6.7075   
     axis 0 0 -20   XYZ
    dof rx ry rz
    limits (-160.0 20.0)
           (-70.0 70.0)
           (-70.0 60.0)
  end
  begin
     id 8 
     name rtibia
     direction -0.34202 -0.939693 0   
     length 7.27262   
     axis 0 0 -20   XYZ
    dof rx
    limits (-10.0 170.0)
 end
 begin
     id 9 
     name rfoot
     direction -0.0455203 -0.125066 0.991104   
     length 1.91095  
     axis -90 -7.62852e-016 -20   XYZ
    dof rx rz
    limits (-45.0 90.0)
           (-20.0 70.0)
  end
  begin
     id 10 
     name rtoes
     direction -1.53601e-011 -4.21913e-011 1   
     length 0.969037   
     axis -90 -7.62852e-016 -20   XYZ
    dof rx
    limits (-90.0 20.0)
  end
  begin
     id 11 
     name lowerback
     direction 0.0181546 0.999122 -0.0377542   
     length 1.99916   
     axis 0 0 0   XYZ
    dof rx ry rz
    limits (-20.0 45.0)
           (-30.0 30.0)
           (-30.0 30.0)
  end
  begin
     id 12 
     name upperback
     direction 0.0203486 0.99589 0.0882534   
     length 1.951   
     axis 0 0 0   XYZ
    dof rx ry rz
    limits (-20.0 45.0)
           (-30.0 30.0)
           (-30.0 30.0)
  end
  begin
     id 13 
     name thorax
     direction 0.0131685 0.994241 0.106355   
     length 1.97461   
     axis 0 0 0   XYZ
    dof rx ry rz
    limits (-20.0 45.0)
           (-30.0 30.0)
           (-30.0 30.0)
  end
  begin
     id 14 
     name lowerneck
     direction -0.0281395 0.999325 0.023617   
     length 1.7959   
     axis 0 0 0   XYZ
    dof rx ry rz
    limits (-20.0 45.0)
           (-30.0 30.0)
           (-30.0 30.0)
  end
  begin
     id 15 
     name upperneck
     direction 0.0288721 0.991984 -0.123019   
     length 1.79917   
     axis 0 0 0   XYZ
    dof rx ry rz
    limits (-20.0 45.0)
           (-30.0 30.0)
           (-30.0 30.0)
  end
  begin
     id 16
     name head
     direction 0.0133797 0.998944 -0.0439492  
     length 1.80902  
     axis 0 0 0   XYZ
    dof rx ry rz
    limits (-20.0 45.0)
           (-30.0 30.0)
           (-30.0 30.0)
  end
  begin
     id 17 
     name lclavicle
     direction 0.919195 0.377107 0.113449  
     length 3.17815  
     axis 0 0 0   XYZ
    dof ry rz
    limits (-20.0 10.0)
           (0.0 20.0)
  end
  begin
     id 18 
     name lhumerus
     direction 1 -4.48959e-011 2.13129e-027   
     length 4.84137   
     axis 180 -30 -90   XYZ
    dof rx ry rz
    limits (-60.0 90.0)
           (-90.0 90.0)
           (-90.0 90.0)
  end
  begin
     id 19
     name lradius
     direction 1 -4.48957e-011 -6.30627e-028   
     length 3.2452   
     axis 180 -30 -90   XYZ
    dof rx
    limits (-10.0 170.0)
  end
  begin
     id 20
     name lwrist
     direction 1 -4.4901e-011 9.13299e-027   
     length 1.6226   
     axis -6.84618e-015 90 90   XYZ
    dof ry
    limits (-180.0 0.0)
 end
  begin
     id 21 
     name lhand
     direction 1 -4.48816e-011 1.82293e-026   
     length 0.521221   
     axis -1.16502e-014 90 90   XYZ
    dof rx rz
    limits (-90.0 90.0)
           (-45.0 45.0)
  end
  begin
     id 22 
     name lfingers
     direction 1 -4.49108e-011 3.65687e-026   
     length 0.420221   
     axis -2.33008e-014 90 90   XYZ
    dof rx
    limits (0.0 90.0)
  end
  begin
     id 23
     name lthumb
     direction 0.707107 -6.34943e-011 0.707107   
     length 0.603356   
     axis -90 45 5.69224e-014   XYZ
    dof rx rz
    limits (-45.0 45.0)
           (-45.0 45.0)
  end
  begin
     id 24 
     name rclavicle
     direction -0.90847 0.38596 0.160368   
     length 3.12973  
     axis 0 0 0   XYZ 
    dof ry rz
    limits (-10.0 20.0)
           (-20.0 0.0)
  end
  begin
     id 25 
     name rhumerus
     direction -1 -4.48974e-011 4.47268e-028  
     length 4.72284   
     axis 180 30 90   XYZ
    dof rx ry rz
    limits (-90.0 60.0)
           (-90.0 90.0)
           (-90.0 90.0)
  end
  begin
     id 26 
     name rradius
     direction -1 -4.48969e-011 3.43203e-027   
     length 3.23459   
     axis 180 30 90   XYZ
    dof rx
    limits (-10.0 170.0)
  end
  begin
     id 27 
     name rwrist
     direction -1 -4.48969e-011 9.12911e-027   
     length 1.6173   
     axis -6.84618e-015 -90 -90   XYZ
    dof ry
    limits (-180.0 0.0)
  end
  begin
     id 28
     name rhand
     direction -1 -4.49194e-011 1.83006e-026   
     length 0.307416   
     axis -1.16502e-014 -90 -90   XYZ
    dof rx rz
    limits (-90.0 90.0)
           (-45.0 45.0)
  end
  begin
     id 29
     name rfingers
     direction -1 -4.48423e-011 3.63103e-026   
     length 0.247847   
     axis -2.33008e-014 -90 -90   XYZ
    dof rx
    limits (0.0 90.0)
  end
  begin
     id 30
     name rthumb
     direction -0.707107 -6.34802e-011 0.707107   
     length 0.35586   
     axis -90 -45 -5.69224e-014   XYZ
    dof rx rz
    limits (-45.0 45.0)
           (-45.0 45.0)
  end
:hierarchy
  begin
    root lhipjoint rhipjoint lowerback
    lhipjoint lfemur
    lfemur ltibia
    ltibia lfoot
    lfoot ltoes
    rhipjoint rfemur
    rfemur rtibia
    rtibia rfoot
    rfoot rtoes
    lowerback upperback
    upperback thorax
    thorax lowerneck lclavicle rclavicle
    lowerneck upperneck
    upperneck head
    lclavicle lhumerus
    lhumerus lradius
    lradius lwrist
    lwrist lhand lthumb
    lhand lfingers
    rclavicle rhumerus
    rhumerus rradius
    rradius rwrist
    rwrist rhand rthumb
    rhand rfingers
  end

#!OML:ASF H:\Terrain\Patient Classification 1\Animal1\Tuesday\Animal1.ASF
:FULLY-SPECIFIED
:DEGREES
530
root 14.5765 15.8663 22.4623 -143.803 39.0597 -158.911
lowerback 6.03868 0.757532 7.49564
upperback -4.96439 2.01401 1.35558
thorax -8.48436 0.641413 -3.03575
lowerneck -2.96273 4.6094 1.40328
upperneck 2.5449 6.0617 3.03047
head 1.22333 3.11481 0.818205
rclavicle -2.66371e-014 3.02153e-014
rhumerus -66.3263 11.3785 -90.6801
rradius 49.8171
rwrist -60.1014
rhand 19.3417 13.1525
rfingers 7.12502
rthumb 43.9213 -10.7596
lclavicle -2.66371e-014 3.02153e-014
lhumerus -56.8326 -1.99067 91.227
lradius 33.4955
lwrist -1.70745
lhand 31.5338 35.097
lfingers 7.12502
lthumb 55.0804 53.1774
rfemur -33.8922 -5.23853 26.6702
rtibia 81.355
rfoot 29.6653 22.1547
rtoes -26.3497
lfemur -47.6338 -2.83879 -34.6619
ltibia 49.8433
lfoot 5.26787 -3.64257
ltoes 28.8852
531
root 14.7755 15.8163 22.3821 -145.166 38.2837 -160.267
lowerback 6.45895 0.520928 6.46624
upperback -4.93863 1.59529 1.18335
thorax -8.75384 0.476043 -2.59882
lowerneck -2.68564 4.7006 1.56257
upperneck 2.43648 6.19113 3.10425
head 1.14263 3.18083 0.806348
rclavicle 2.8625e-014 3.18055e-015
rhumerus -66.5425 10.4075 -89.688
rradius 50.2902
rwrist -60.7812
rhand 19.637 13.4612
rfingers 7.12502
rthumb 44.1968 -10.3479
lclavicle 2.8625e-014 3.18055e-015
lhumerus -56.5142 -2.38102 91.3293
lradius 33.1727
lwrist -2.06537
lhand 31.0068 35.6542
lfingers 7.12502
lthumb 54.6098 54.0714
rfemur -36.9165 -6.06811 25.6247
rtibia 85.8757
rfoot 28.6004 22.0706
rtoes -25.4166
lfemur -46.2263 -3.56423 -35.0125
ltibia 50.2941
lfoot 3.85776 -4.1095
ltoes 24.6424
532
root 14.972 15.7791 22.301 -146.039 37.3029 -161.152
lowerback 6.88907 0.190568 5.81962
upperback -5.03947 1.11349 1.14995
thorax -9.16565 0.263766 -2.21319
lowerneck -2.58812 4.85881 1.64497
upperneck 2.663 6.39886 3.32427
head 1.19118 3.29506 0.86612
rclavicle 2.66371e-014 6.36111e-015
rhumerus -66.87 9.91209 -89.0725
rradius 50.8026
rwrist -61.1777
rhand 19.4456 13.3289
rfingers 7.12502
rthumb 44.0183 -10.5471
lclavicle 2.66371e-014 6.36111e-015
lhumerus -56.4764 -2.57731 91.3981
lradius 33.151
lwrist -1.73333
lhand 30.6352 36.5281
lfingers 7.12502
lthumb 54.2771 55.177
rfemur -40.0722 -6.63819 24.9721
rtibia 89.8939
rfoot 28.5313 20.6376
rtoes -23.5633
lfemur -45.0872 -4.26444 -34.7635
ltibia 50.6828
lfoot 2.50107 -4.44046
ltoes 24.6572
533
root 15.1709 15.7372 22.2273 -146.895 36.2154 -162.034
lowerback 7.42917 -0.166457 5.14527
upperback -5.13152 0.592629 1.13565
thorax -9.62789 0.0380819 -1.77747
lowerneck -2.82174 4.91936 1.72794
upperneck 3.04763 6.46038 3.5055
head 1.34995 3.34087 0.926253
rclavicle 5.96354e-015 2.70347e-014
rhumerus -67.1181 9.64966 -88.627
rradius 51.2556
rwrist -61.4191
rhand 19.5094 12.8768
rfingers 7.12502
rthumb 44.0778 -10.9771
lclavicle 5.96354e-015 2.70347e-014
lhumerus -56.5466 -2.7153 91.4192
lradius 33.4323
lwrist -1.08108
lhand 30.9015 36.9496
lfingers 7.12502
lthumb 54.5156 55.433
rfemur -43.3724 -7.07388 24.357
rtibia 93.6303
rfoot 29.4176 17.6464
rtoes -22.4374
lfemur -44.1105 -4.95177 -34.4392
ltibia 51.2959
lfoot 0.677173 -5.17067
ltoes 28.9751
534
root 15.3776 15.7093 22.0707 -148.218 36.049 -163.122
lowerback 7.49227 -0.272259 4.2274
upperback -4.90576 0.289533 0.841173
thorax -9.42828 -0.0626425 -1.52989
lowerneck -3.10072 5.00419 1.86387
upperneck 3.38406 6.55177 3.62363
head 1.50583 3.40108 0.960038
rclavicle -1.53462e-013 -3.18055e-015
rhumerus -67.2067 9.57862 -88.3954
rradius 51.4843
rwrist -61.6163
rhand 20.2515 13.063
rfingers 7.12502
rthumb 44.7693 -10.5269
lclavicle -1.53462e-013 -3.18055e-015
lhumerus -56.626 -2.88321 91.559
lradius 33.5903
lwrist -1.11394
lhand 31.5047 37.2675
lfingers 7.12502
lthumb 55.0544 55.3667
rfemur -45.6144 -7.1364 22.6541
rtibia 96.6289
rfoot 29.209 15.2073
rtoes -25.2966
lfemur -42.0337 -5.25882 -34.7678
ltibia 51.7648
lfoot -1.51906 -6.26091
ltoes 39.6623
535
root 15.5618 15.6469 22.0502 -147.786 34.8022 -164.283
lowerback 7.11905 -0.751834 3.15234
upperback -5.43843 -0.456587 0.880144
thorax -9.8192 -0.352905 -0.768381
lowerneck -3.25628 5.2861 1.60167
upperneck 3.48818 6.92777 4.11674
head 1.53685 3.60299 1.17212
rclavicle -3.49861e-014 2.06736e-014
rhumerus -67.0696 9.78778 -88.4267
rradius 51.5643
rwrist -61.7564
rhand 20.9746 13.6894
rfingers 7.12502
rthumb 45.4419 -9.6339
lclavicle -3.49861e-014 2.06736e-014
lhumerus -56.8409 -3.45514 92.2468
lradius 33.6185
lwrist -1.39328
lhand 32.427 37.8756
lfingers 7.12502
lthumb 55.8747 55.3621
rfemur -51.3242 -7.54692 22.3556
rtibia 99.9206
rfoot 29.3455 14.0794
rtoes -16.5191
lfemur -43.0015 -5.67108 -34.8432
ltibia 52.2536
lfoot -2.62423 -8.12638
ltoes 36.7439
536
root 15.7497 15.611 21.9686 -147.153 33.5326 -164.031
lowerback 6.85248 -0.975568 3.34156
upperback -5.64515 -0.710651 1.03784
thorax -9.90168 -0.477749 -0.668333
lowerneck -3.32613 5.39072 1.77764
upperneck 3.23849 7.06958 4.33658
head 1.46546 3.68099 1.21045
rclavicle 7.55382e-015 -6.36111e-014
rhumerus -66.8141 9.47631 -88.4651
rradius 51.6493
rwrist -61.6151
rhand 21.2712 13.9663
rfingers 7.12502
rthumb 45.7174 -9.24495
lclavicle 7.55382e-015 -6.36111e-014
lhumerus -57.0942 -4.76968 93.2217
lradius 33.7568
lwrist -1.52232
lhand 33.6946 38.9821
lfingers 7.12502
lthumb 56.9944 55.5728
rfemur -55.4996 -7.25138 22.8498
rtibia 102.086
rfoot 28.9778 12.8465
rtoes -11.2068
lfemur -43.0107 -5.80547 -33.7134
ltibia 52.6309
lfoot -3.00731 -9.03328
ltoes 38.6872
537
root 15.9368 15.5729 21.8673 -147.398 32.3935 -163.99
lowerback 7.14816 -1.11967 3.46777
upperback -5.56885 -0.886132 1.02281
thorax -10.0042 -0.574984 -0.723621
lowerneck -3.19879 5.31512 2.53648
upperneck 2.61992 6.9744 3.89388
head 1.28821 3.62086 0.927281
rclavicle 3.1408e-014 -2.06736e-014
rhumerus -66.5925 8.99293 -88.5917
rradius 51.8327
rwrist -61.3544
rhand 21.1909 13.9734
rfingers 7.12502
rthumb 45.6428 -9.26838
lclavicle 3.1408e-014 -2.06736e-014
lhumerus -57.2297 -6.02275 93.8059
lradius 33.8016
lwrist -2.20808
lhand 34.991 39.7357
lfingers 7.12502
lthumb 58.1293 55.3405
rfemur -58.605 -7.10799 22.8364
rtibia 103.771
rfoot 28.2183 12.179
rtoes -8.77473
lfemur -41.8087 -5.44997 -33.3059
ltibia 52.8811
lfoot -5.46654 -9.36225
ltoes 33.7614
538
root 16.1156 15.5586 21.7358 -148.27 31.5908 -164.573
lowerback 7.6777 -1.52746 2.99054
upperback -5.46726 -1.4754 1.11525
thorax -10.2129 -0.827891 -0.251296
lowerneck -2.70219 5.50105 2.48802
upperneck 1.86728 7.26949 3.59394
head 0.971452 3.73969 0.812173
rclavicle -3.02153e-014 -1.27222e-014
rhumerus -66.5568 9.64543 -88.8409
rradius 52.2157
rwrist -61.4828
rhand 20.1527 15.4724
rfingers 7.12502
rthumb 44.6773 -8.15316
lclavicle -3.02153e-014 -1.27222e-014
lhumerus -57.4238 -5.84106 94.0645
lradius 33.5653
lwrist -3.38279
lhand 35.7248 39.5472
lfingers 7.12502
lthumb 58.7668 54.56
rfemur -61.2886 -7.44042 21.9386
rtibia 104.884
rfoot 27.9048 11.9547
rtoes -5.74129
lfemur -40.0621 -5.27441 -33.5443
ltibia 52.9313
lfoot -6.96799 -9.41037
ltoes 24.1629
